<svg xmlns="http://www.w3.org/2000/svg" viewBox="0 0 240 240">
  <circle cx="120" cy="120" r="120" fill="#00C300"/>
  <path fill="#FFFFFF" d="M195.6 104.4c0-32.5-32.6-59-72.6-59s-72.6 26.5-72.6 59c0 29.2 25.9 53.6 60.8 58.2 2.4.5 5.6 1.6 6.4 3.6.7 1.8.5 4.7.2 6.5 0 0-.9 5.1-1 6.2-.3 1.8-1.5 7 6.1 3.8s40.7-24 55.5-41.1c10.2-11.2 15.2-22.6 15.2-36.2zm-99.8 18.5h-20c-1.4 0-2.5-1.1-2.5-2.5v-32c0-1.4 1.1-2.5 2.5-2.5s2.5 1.1 2.5 2.5v29.5h17.5c1.4 0 2.5 1.1 2.5 2.5s-1.1 2.5-2.5 2.5zm12.7-2.5c0 1.4-1.1 2.5-2.5 2.5s-2.5-1.1-2.5-2.5v-32c0-1.4 1.1-2.5 2.5-2.5s2.5 1.1 2.5 2.5v32zm34.6 0c0 1.1-.7 2.1-1.7 2.4-.3.1-.6.1-.8.1-.8 0-1.6-.4-2-1.1l-20.5-27.7v26.2c0 1.4-1.1 2.5-2.5 2.5s-2.5-1.1-2.5-2.5v-32c0-1.1.7-2.1 1.7-2.4.3-.1.6-.1.8-.1.8 0 1.6.4 2 1.1l20.5 27.7V88.4c0-1.4 1.1-2.5 2.5-2.5s2.5 1.1 2.5 2.5v32zm22.5-24.5h-17.5v7h17.5c1.4 0 2.5 1.1 2.5 2.5s-1.1 2.5-2.5 2.5h-17.5v7h17.5c1.4 0 2.5 1.1 2.5 2.5s-1.1 2.5-2.5 2.5h-20c-1.4 0-2.5-1.1-2.5-2.5v-32c0-1.4 1.1-2.5 2.5-2.5h20c1.4 0 2.5 1.1 2.5 2.5s-1.1 2.5-2.5 2.5z"/>
</svg>
