<svg xmlns="http://www.w3.org/2000/svg" viewBox="0 0 240 240">
  <defs>
    <linearGradient id="telegram-gradient" x1="0%" y1="0%" x2="100%" y2="100%">
      <stop offset="0%" style="stop-color:#2AABEE;stop-opacity:1" />
      <stop offset="100%" style="stop-color:#229ED9;stop-opacity:1" />
    </linearGradient>
  </defs>
  <circle cx="120" cy="120" r="120" fill="url(#telegram-gradient)"/>
  <path fill="#FFFFFF" d="M81.229 128.772l14.237 39.406s1.78 3.687 3.686 3.687 30.255-29.492 30.255-29.492l31.525-60.89L81.737 118.6l-.508 10.172z"/>
  <path fill="#D2E5F1" d="M100.106 138.878l-2.733 29.046s-1.144 8.9 7.754 0 17.415-15.763 17.415-15.763"/>
  <path fill="#B5CFE4" d="M81.486 130.178l-17.8-5.467s-2.135-.857-1.4-2.78c.146-.382.406-.684.857-1.008 4.16-2.893 77.79-29.536 77.79-29.536s1.632-.546 2.61-.163a1.74 1.74 0 011.008 1.139c.097.382.163.837.163 1.4-.053 1.028-.053 2.126-.053 3.224l-13.317 63.214s-.75 2.78-3.532 2.78-18.423-14.237-18.423-14.237l-27.846-21.204z"/>
</svg>
