<svg xmlns="http://www.w3.org/2000/svg" viewBox="0 0 240 240">
  <circle cx="120" cy="120" r="120" fill="#665CAC"/>
  <path fill="#FFFFFF" d="M171.5 89.6c-2.2-14.8-13.4-26-28.2-28.2-20.9-3.1-41.9-3.1-62.8 0-14.8 2.2-26 13.4-28.2 28.2-3.1 20.9-3.1 41.9 0 62.8 2.2 14.8 13.4 26 28.2 28.2 10.5 1.5 21 2.3 31.5 2.3s21-.8 31.3-2.3c14.8-2.2 26-13.4 28.2-28.2 3.1-20.9 3.1-41.9 0-62.8zm-33.9 73.2c-1.1.5-2.3.7-3.6.7-2.1 0-4-.7-5.5-2-3.9-3.5-7.8-7-11.4-10.8-5.9-6.2-11.3-13-15.6-20.6-.9-1.5-1.7-3.1-2.5-4.7-.7-1.4-.5-2.9.6-4 .4-.4.9-.7 1.4-.9.9-.4 1.9-.6 2.9-.6 2.1 0 4.1.9 5.5 2.5 2.7 3 5.3 6.1 7.8 9.3.9 1.2 1.3 2.7 1 4.2-.2 1.5-1 2.7-2.3 3.5-.8.5-1.7.8-2.6.9 3.5 5.8 8 10.9 13.4 15.1 1.1-.8 2.3-1.4 3.6-1.9 1.5-.5 3.1-.4 4.6.3 1.4.7 2.5 1.9 3 3.4.9 2.4.5 5.2-1.3 7.2-1.5 1.6-3.6 2.6-5.9 2.8z"/>
  <path fill="#FFFFFF" d="M120 72c-26.5 0-48 19.4-48 43.3 0 13.3 7 25.3 18 33.4v13.8l12.5-6.8c5.8 1.6 11.9 2.4 18 2.4 26.5 0 48-19.4 48-43.3s-21.5-43.8-48-43.8zm2.4 58.2h-4.8v-4.8h4.8v4.8zm0-9.6h-4.8c0-13.3 10.8-24 24-24v4.8c-10.6 0-19.2 8.6-19.2 19.2z"/>
</svg>
